<?xml version="1.0" standalone="no"?><!DOCTYPE svg PUBLIC "-//W3C//DTD SVG 1.1//EN" "http://www.w3.org/Graphics/SVG/1.1/DTD/svg11.dtd"><svg t="1659064497985" class="icon" viewBox="0 0 1024 1024" version="1.1" xmlns="http://www.w3.org/2000/svg" p-id="7392" xmlns:xlink="http://www.w3.org/1999/xlink" width="48" height="48"><defs><style type="text/css"></style></defs><path d="M846.35916 725.259058l-491.37117 0c-13.794168 0-26.936489-12.44545-28.705785-27.183106l-51.509141-362.723162-29.127388-168.117952c-5.294586-43.370787-43.400462-77.285201-86.785575-77.285201l-38.540781 0c-15.869433 0-28.77844 12.910031-28.77844 28.77844s12.910031 28.77844 28.77844 28.77844l38.540781 0c14.302751 0 27.966958 12.851703 29.851888 28.053939l29.184693 168.726819 51.305503 361.272114c5.250584 43.313481 42.921555 77.226872 85.784782 77.226872l491.37117 0c15.869433 0 28.77844-12.910031 28.77844-28.77844C875.138624 738.168066 862.228593 725.259058 846.35916 725.259058z" p-id="7393"></path><path d="M914.563542 207.269647c-15.143908-17.145495-36.001959-26.574239-58.688657-26.574239L332.084351 180.695409c-15.869433 0-28.77844 12.910031-28.77844 28.77844s12.910031 28.77844 28.77844 28.77844l523.790534 0c6.179746 0 11.43033 2.407839 15.607466 7.136537 6.208399 7.020904 9.370415 18.538215 8.064676 29.358655l-47.664579 272.730545c-1.769296 14.534018-15.637142 26.51591-30.896684 26.602891l-410.28541 30.258141c-7.658424 0.551562-14.620999 4.03285-19.640316 9.863648-5.033643 5.802146-7.484462 13.229303-6.919597 20.887726 1.087774 14.969946 13.678534 26.689872 28.662807 26.689872 0.681522 0 1.407046-0.028653 2.118244-0.086981l408.153864-30.17116c42.935881 0 80.534198-33.217543 85.697801-75.601862l47.694255-272.730545C939.919023 254.586302 931.941328 226.88131 914.563542 207.269647z" p-id="7394"></path><path d="M362.821399 934.049339c32.536021 0 59.022255-26.487258 59.022255-59.007929 0-32.550347-26.487258-59.037605-59.022255-59.037605s-59.022255 26.487258-59.022255 59.037605C303.798121 907.563104 330.285379 934.049339 362.821399 934.049339z" p-id="7395"></path><path d="M786.364765 934.049339c32.521694 0 59.007929-26.487258 59.007929-59.007929 0-32.550347-26.487258-59.037605-59.007929-59.037605-32.550347 0-59.036581 26.487258-59.036581 59.037605C727.328183 907.563104 753.814418 934.049339 786.364765 934.049339z" p-id="7396"></path></svg>